<svg width="60" height="36" viewBox="0 0 60 36" fill="none" xmlns="http://www.w3.org/2000/svg">
<path d="M16.9124 13.0763C16.9124 13.815 16.9874 14.415 17.1299 14.8575C17.2874 15.2962 17.4899 15.7762 17.7674 16.2975C17.856 16.4352 17.9041 16.595 17.9062 16.7587C17.9062 16.9575 17.7862 17.16 17.5312 17.3588L16.2712 18.1988C16.1199 18.3079 15.94 18.3705 15.7537 18.3787C15.5512 18.3787 15.3524 18.2813 15.1537 18.1013C14.8841 17.8112 14.643 17.496 14.4337 17.16C14.2119 16.7752 14.0067 16.3811 13.8187 15.9788C12.2587 17.82 10.3049 18.7425 7.94992 18.7425C6.27367 18.7425 4.93492 18.2587 3.95992 17.2987C2.98117 16.3387 2.48242 15.0563 2.48242 13.455C2.48242 11.7525 3.08242 10.3725 4.29742 9.33C5.51617 8.2875 7.13242 7.77 9.18742 7.77C9.86242 7.77 10.5637 7.83 11.3024 7.9275C12.0412 8.02875 12.8024 8.19 13.5974 8.37V6.9075C13.5974 5.385 13.2787 4.32375 12.6599 3.705C12.0224 3.0825 10.9424 2.7825 9.40492 2.7825C8.70742 2.7825 7.99117 2.865 7.25242 3.045C6.51845 3.21968 5.79787 3.44651 5.09617 3.72375C4.86963 3.82632 4.63663 3.91401 4.39867 3.98625C4.29556 4.02032 4.18837 4.0405 4.07992 4.04625C3.79867 4.04625 3.65992 3.84375 3.65992 3.42375V2.44125C3.65992 2.1225 3.69742 1.87875 3.79867 1.74375C3.94979 1.55976 4.14263 1.41448 4.36117 1.32C5.05492 0.960001 5.89492 0.66 6.87367 0.42C7.84867 0.1575 8.88742 0.0412506 9.98617 0.0412506C12.3599 0.0412506 14.0962 0.581251 15.2137 1.66125C16.3124 2.74125 16.8712 4.38375 16.8712 6.58875V13.0763H16.9087H16.9124ZM8.80867 16.1175C9.46492 16.1175 10.1437 15.9975 10.8637 15.7575C11.5837 15.5175 12.2212 15.075 12.7574 14.475C13.079 14.1066 13.3112 13.669 13.4362 13.1962C13.5562 12.7125 13.6387 12.135 13.6387 11.4525V10.6125C13.033 10.4656 12.4195 10.3529 11.8012 10.275C11.1794 10.1946 10.5531 10.1532 9.92617 10.1513C8.58742 10.1513 7.61242 10.4137 6.95242 10.9537C6.29242 11.4937 5.97742 12.255 5.97742 13.2563C5.97742 14.1938 6.21367 14.895 6.71242 15.3787C7.19242 15.8775 7.88992 16.1175 8.80867 16.1175ZM24.8324 18.2812C24.4724 18.2812 24.2324 18.2213 24.0749 18.0788C23.9137 17.9587 23.7749 17.6812 23.6549 17.2987L18.9674 1.8225C18.8762 1.56296 18.8158 1.29362 18.7874 1.02C18.7874 0.701251 18.9449 0.521252 19.2637 0.521252H21.2212C21.5962 0.521252 21.8587 0.581251 21.9974 0.720001C22.1587 0.840001 22.2787 1.12125 22.3987 1.5L25.7512 14.7563L28.8637 1.5C28.9612 1.1025 29.0812 0.840001 29.2424 0.720001C29.482 0.573369 29.7608 0.503981 30.0412 0.521252H31.6387C32.0137 0.521252 32.2762 0.581251 32.4337 0.720001C32.5949 0.840001 32.7337 1.12125 32.8162 1.5L35.9662 14.9175L39.4162 1.5C39.4803 1.20971 39.6186 0.940987 39.8174 0.720001C40.0499 0.57298 40.323 0.503401 40.5974 0.521252H42.4537C42.7724 0.521252 42.9524 0.682501 42.9524 1.02C42.9524 1.12125 42.9299 1.2225 42.9149 1.3425C42.8825 1.5127 42.8348 1.67963 42.7724 1.84125L37.9612 17.3175C37.8449 17.7188 37.7024 17.9813 37.5449 18.1013C37.3185 18.2461 37.052 18.3157 36.7837 18.3H35.0699C34.6912 18.3 34.4324 18.24 34.2712 18.1013C34.1099 17.9588 33.9712 17.7 33.8924 17.2987L30.7987 4.3875L27.7237 17.2838C27.6262 17.685 27.5062 17.9438 27.3487 18.0825C27.1874 18.225 26.9062 18.285 26.5499 18.285H24.8324V18.2812ZM50.4749 18.8213C49.4393 18.8226 48.4072 18.7018 47.3999 18.4613C46.4024 18.2213 45.6262 17.9588 45.1049 17.6588C44.7862 17.4788 44.5687 17.28 44.4862 17.0963C44.4101 16.9197 44.3706 16.7297 44.3699 16.5375V15.5175C44.3699 15.0975 44.5274 14.895 44.8274 14.895C44.9499 14.8953 45.0715 14.9155 45.1874 14.955C45.3074 14.9963 45.4874 15.075 45.6862 15.1575C46.3612 15.4575 47.1037 15.6975 47.8799 15.8588C48.6787 16.0163 49.4549 16.0988 50.2537 16.0988C51.5137 16.0988 52.4887 15.8775 53.1674 15.4388C53.4935 15.2414 53.7614 14.9611 53.9439 14.6264C54.1263 14.2918 54.2169 13.9148 54.2062 13.5338C54.2129 13.2765 54.1687 13.0205 54.076 12.7804C53.9833 12.5403 53.844 12.321 53.6662 12.135C53.3099 11.7525 52.6312 11.4113 51.6524 11.0925L48.7574 10.1925C47.3024 9.73125 46.2224 9.04875 45.5662 8.14875C44.9237 7.31716 44.5732 6.29708 44.5687 5.24625C44.5687 4.40625 44.7487 3.66375 45.1049 3.0225C45.4649 2.385 45.9449 1.8225 46.5449 1.38C47.1449 0.9225 47.8199 0.58125 48.6187 0.34125C49.4174 0.10125 50.2537 0 51.1312 0C51.5737 0 52.0312 0.0187514 52.4699 0.0787514C52.9274 0.138751 53.3474 0.221251 53.7674 0.303751C54.1649 0.401251 54.5474 0.498751 54.9037 0.622501C55.2637 0.742501 55.5412 0.8625 55.7437 0.9825C55.9791 1.10086 56.1843 1.27145 56.3437 1.48125C56.472 1.6765 56.5339 1.908 56.5199 2.14125V3.0825C56.5199 3.5025 56.3624 3.72375 56.0624 3.72375C55.7968 3.69342 55.5396 3.61192 55.3049 3.48375C54.099 2.94921 52.7913 2.68307 51.4724 2.70375C50.3362 2.70375 49.4362 2.88375 48.8174 3.26625C48.1987 3.64125 47.8799 4.22625 47.8799 5.0475C47.8799 5.60625 48.0787 6.08625 48.4799 6.46875C48.8774 6.8475 49.6162 7.22625 50.6737 7.5675L53.5087 8.4675C54.9449 8.92875 55.9837 9.57 56.6024 10.3913C57.2212 11.2125 57.5174 12.1538 57.5174 13.1962C57.5174 14.0588 57.3412 14.835 56.9999 15.5175C56.6467 16.2024 56.1505 16.8035 55.5449 17.28C54.9262 17.7787 54.1874 18.1425 53.3287 18.4013C52.4287 18.6825 51.4912 18.8213 50.4749 18.8213Z" fill="currentColor"/>
<path fill-rule="evenodd" clip-rule="evenodd" d="M54.2435 28.5484C47.681 33.4121 38.141 35.9959 29.9397 35.9959C18.446 35.9959 8.08849 31.7321 0.265989 24.6446C-0.352761 24.0821 0.205988 23.3209 0.940988 23.7634C9.40474 28.6871 19.841 31.6721 30.641 31.6721C37.9197 31.6721 45.9222 30.1496 53.2872 27.0259C54.386 26.5271 55.3235 27.7459 54.2435 28.5484Z" fill="currentColor"/>
<path fill-rule="evenodd" clip-rule="evenodd" d="M56.9774 25.4252C56.1412 24.3489 51.4312 24.9077 49.2974 25.1664C48.6599 25.2489 48.5587 24.6864 49.1362 24.2664C52.8862 21.6227 59.0549 22.3839 59.7712 23.2652C60.4912 24.1652 59.5724 30.3527 56.0587 33.3152C55.5224 33.7764 55.0049 33.5402 55.2449 32.9402C56.0399 30.9527 57.8174 26.4902 56.9774 25.4289V25.4252Z" fill="currentColor"/>
</svg>
