<svg width="120" height="173" viewBox="0 0 120 173" fill="none" xmlns="http://www.w3.org/2000/svg">
    <g>
        <path
            d="M67.6209 51.307C66.2716 56.754 57.1265 53.8056 54.1282 53.056L56.5269 43.4112C59.5253 44.1608 69.0202 45.61 67.6209 51.307ZM59.8251 30.2184L57.6263 38.9636C60.1249 39.5633 67.7708 42.1119 69.0202 37.1646C70.2695 32.0175 62.3238 30.8181 59.8251 30.2184ZM98.8042 52.6063C93.457 73.9948 71.7687 87.0378 50.3302 81.7406C28.9417 76.3935 15.8487 54.7051 21.1958 33.3166C26.543 11.8783 48.2313 -1.11475 69.6698 4.1824C91.0583 9.52953 104.151 31.2179 98.8042 52.6063ZM46.882 49.6578C46.6821 50.2076 46.1324 51.0071 44.8831 50.7073C44.6832 50.7073 41.6848 49.9077 41.6848 49.9077L39.486 54.905L45.183 56.3043C46.2824 56.6041 47.2818 56.854 48.3313 57.1538L46.5322 64.3999L50.8799 65.4993L52.6789 58.3032C53.8783 58.653 55.0277 58.9029 56.177 59.2027L54.378 66.3489L58.7757 67.4483L60.5747 60.2022C68.0707 61.6014 73.7176 61.0517 76.0664 54.2554C77.9654 48.8083 75.9664 45.66 72.0185 43.6111C74.867 42.9614 77.0159 41.0625 77.6155 37.1646C78.4151 31.8675 74.3673 28.9691 68.8203 27.1201L70.6193 19.874L66.2217 18.7746L64.4726 25.7708C63.3232 25.471 62.1239 25.2211 60.9245 24.9213L62.6736 17.8751L58.3259 16.7756L56.5269 23.9718C55.5774 23.7719 54.6279 23.522 53.7284 23.3221L47.6816 21.773L46.5322 26.4704C46.5322 26.4704 49.7305 27.22 49.7305 27.27C51.4796 27.7198 51.7794 28.8692 51.7794 29.8186L46.8321 49.5579L46.882 49.6578Z"
            fill="currentColor" />
    </g>
</svg>