<?xml version="1.0" encoding="iso-8859-1"?>
<svg fill="currentcolor" version="1.1" id="Layer_1" xmlns="http://www.w3.org/2000/svg"
	xmlns:xlink="http://www.w3.org/1999/xlink"
	viewBox="0 0 195.92 195.92" xml:space="preserve">
<g>
	<g>
		<g>
			<path d="M172.25,0H23.67C10.619,0,0,10.619,0,23.67v148.58c0,13.051,10.619,23.67,23.67,23.67h148.577
				c13.051,0,23.673-10.619,23.673-23.67V23.67C195.923,10.619,185.301,0,172.25,0z M90.351,180.703H23.67
				c-4.661,0-8.453-3.792-8.453-8.453v-66.681h75.134V180.703z M90.351,90.351H15.217V23.67c0-4.661,3.792-8.453,8.453-8.453h66.681
				V90.351z M180.705,172.25c0.001,4.661-3.796,8.453-8.455,8.453h-66.679v-75.134h75.134V172.25z M180.706,90.351h-75.134V15.217
				h66.679c4.658,0,8.455,3.792,8.455,8.453V90.351z"/>
			<polygon points="44.756,75.771 59.973,75.771 59.973,60.554 75.19,60.554 75.19,45.337 59.973,45.337 59.973,30.12 44.756,30.12 
				44.756,45.337 29.539,45.337 29.539,60.554 44.756,60.554 			"/>
			<polygon points="41.604,164.289 52.362,153.528 63.123,164.289 73.882,153.53 63.123,142.769 73.882,132.008 63.123,121.25 
				52.362,132.011 41.604,121.25 30.843,132.008 41.604,142.769 30.843,153.53 			"/>
			<rect x="121.263" y="45.337" width="45.651" height="15.217"/>
			<rect x="121.263" y="123.71" width="45.651" height="15.217"/>
			<rect x="121.263" y="146.614" width="45.651" height="15.217"/>
		</g>
	</g>
</g>
</svg>
