<svg width="24" height="24" viewBox="0 0 24 24" fill="none" xmlns="http://www.w3.org/2000/svg">
<path d="M14.1 8.5L12 6.4L9.9 8.5L8.5 7.1L10.6 5L8.5 2.9L9.9 1.5L12 3.6L14.1 1.5L15.5 2.9L13.4 5L15.5 7.1L14.1 8.5ZM7 18C8.1 18 9 18.9 9 20C9 21.1 8.1 22 7 22C5.9 22 5 21.1 5 20C5 18.9 5.9 18 7 18ZM17 18C18.1 18 19 18.9 19 20C19 21.1 18.1 22 17 22C15.9 22 15 21.1 15 20C15 18.9 15.9 18 17 18ZM7.2 14.8C7.2 14.9 7.3 15 7.4 15H19V17H7C5.9 17 5 16.1 5 15C5 14.6 5.1 14.3 5.2 14L6.5 11.6L3 4H1V2H4.3L8.6 11H15.6L19.5 4L21.2 5L17.3 12C17 12.6 16.3 13 15.6 13H8.1L7.2 14.6V14.8Z" fill="#010101"/>
</svg>
