<svg width="45" height="45" viewBox="0 0 45 45" fill="none" xmlns="http://www.w3.org/2000/svg">
<path d="M37.9582 13.6667H35.7498V7.04175C35.7498 5.28469 35.0519 3.59959 33.8094 2.35717C32.567 1.11474 30.8819 0.416748 29.1248 0.416748H7.0415C5.28444 0.416748 3.59935 1.11474 2.35692 2.35717C1.11449 3.59959 0.416504 5.28469 0.416504 7.04175V33.5417C0.41868 33.9777 0.54986 34.4033 0.793513 34.7649C1.03717 35.1264 1.38239 35.4077 1.78567 35.5734C2.04775 35.697 2.33516 35.7575 2.62484 35.7501C2.91547 35.7518 3.20357 35.6961 3.47263 35.5862C3.74169 35.4763 3.98641 35.3143 4.19275 35.1097L10.3982 28.8822H13.6665V32.0622C13.6665 33.8192 14.3645 35.5043 15.6069 36.7467C16.8493 37.9892 18.5344 38.6872 20.2915 38.6872H35.5732L40.8069 43.943C41.0133 44.1477 41.258 44.3096 41.527 44.4195C41.7961 44.5294 42.0842 44.5851 42.3748 44.5834C42.6645 44.5909 42.9519 44.5304 43.214 44.4067C43.6173 44.2411 43.9625 43.9597 44.2062 43.5982C44.4498 43.2366 44.581 42.8111 44.5832 42.3751V20.2917C44.5832 18.5347 43.8852 16.8496 42.6428 15.6072C41.4003 14.3647 39.7152 13.6667 37.9582 13.6667ZM13.6665 20.2917V24.4655H9.49275C9.20212 24.4638 8.91402 24.5195 8.64496 24.6294C8.3759 24.7393 8.13119 24.9012 7.92484 25.1059L4.83317 28.2197V7.04175C4.83317 6.45606 5.06583 5.89436 5.47998 5.48022C5.89412 5.06608 6.45582 4.83341 7.0415 4.83341H29.1248C29.7105 4.83341 30.2722 5.06608 30.6864 5.48022C31.1005 5.89436 31.3332 6.45606 31.3332 7.04175V13.6667H20.2915C18.5344 13.6667 16.8493 14.3647 15.6069 15.6072C14.3645 16.8496 13.6665 18.5347 13.6665 20.2917ZM40.1665 37.053L37.9582 34.8447C37.7537 34.636 37.5098 34.47 37.2406 34.3563C36.9715 34.2426 36.6824 34.1834 36.3903 34.1822H20.2915C19.7058 34.1822 19.1441 33.9495 18.73 33.5354C18.3158 33.1212 18.0832 32.5595 18.0832 31.9738V20.2917C18.0832 19.7061 18.3158 19.1444 18.73 18.7302C19.1441 18.3161 19.7058 18.0834 20.2915 18.0834H37.9582C38.5439 18.0834 39.1056 18.3161 39.5197 18.7302C39.9338 19.1444 40.1665 19.7061 40.1665 20.2917V37.053Z" fill="currentColor"/>
</svg>
