<svg width="70" height="83" viewBox="0 0 70 83" fill="none" xmlns="http://www.w3.org/2000/svg">
<path d="M46.6667 0H23.3333V7.90476H46.6667V0ZM31.1111 51.381H38.8889V27.6667H31.1111V51.381ZM62.3194 25.236L67.8611 19.6038C66.1889 17.5683 64.3611 15.7107 62.3583 14.0112L56.8167 19.6433C50.6239 14.5944 42.9197 11.8473 34.9806 11.8571C15.6333 11.8571 0 27.7852 0 47.4286C0 67.0719 15.6333 83 34.9806 83C54.3278 83 70 67.0719 70 47.4286C70 39.0298 67.1222 31.3226 62.3194 25.236ZM35 75.0952C19.9694 75.0952 7.77778 62.7045 7.77778 47.4286C7.77778 32.1526 19.9694 19.7619 35 19.7619C50.0306 19.7619 62.2222 32.1526 62.2222 47.4286C62.2222 62.7045 50.0306 75.0952 35 75.0952Z" fill="currentColor"/>
</svg>
