<svg width="19" height="19" viewBox="0 0 19 19" fill="none" xmlns="http://www.w3.org/2000/svg">
<path d="M19 3.67734L14.6299 0.0469229L13.3951 1.50881L17.7652 5.13875L19 3.67734ZM5.55759 1.46136L4.32232 0L0 3.67734L1.23473 5.1387L5.55759 1.46136ZM9.97504 5.79891H8.55V11.4566L13.0625 14.144L13.775 12.9653L9.975 10.7493L9.97504 5.79891ZM9.5 2.02718C4.75 2.02718 0.949955 5.84587 0.949955 10.5135C0.949955 15.1814 4.75 19 9.5 19C14.2028 19 18.05 15.1814 18.05 10.5135C18.05 5.84592 14.2028 2.02718 9.5 2.02718ZM9.5 17.1142C5.84237 17.1142 2.85 14.1441 2.85 10.5136C2.85 6.88328 5.84237 3.91311 9.5 3.91311C13.1577 3.91311 16.15 6.88324 16.15 10.5136C16.15 14.191 13.1577 17.1142 9.5 17.1142Z" fill="currentColor"/>
</svg>
