<svg width="55" height="55" viewBox="0 0 55 55" fill="none" xmlns="http://www.w3.org/2000/svg">
<path d="M17.4214 17.4213C17.6739 17.1667 17.9744 16.9646 18.3054 16.8267C18.6364 16.6888 18.9915 16.6178 19.3502 16.6178C19.7088 16.6178 20.0639 16.6888 20.3949 16.8267C20.7259 16.9646 21.0264 17.1667 21.2789 17.4213L27.5 23.6696L33.7211 17.4213C34.2326 16.9098 34.9264 16.6224 35.6499 16.6224C36.3733 16.6224 37.0671 16.9098 37.5787 17.4213C38.0902 17.9329 38.3776 18.6267 38.3776 19.3501C38.3776 20.0736 38.0902 20.7674 37.5787 21.2789L31.3304 27.5L37.5787 33.7211C37.8333 33.9736 38.0354 34.2741 38.1733 34.6051C38.3112 34.9361 38.3822 35.2912 38.3822 35.6498C38.3822 36.0085 38.3112 36.3636 38.1733 36.6946C38.0354 37.0256 37.8333 37.3261 37.5787 37.5786C37.3261 37.8333 37.0256 38.0354 36.6946 38.1733C36.3636 38.3112 36.0085 38.3822 35.6499 38.3822C35.2912 38.3822 34.9362 38.3112 34.6051 38.1733C34.2741 38.0354 33.9736 37.8333 33.7211 37.5786L27.5 31.3304L21.2789 37.5786C21.0264 37.8333 20.7259 38.0354 20.3949 38.1733C20.0639 38.3112 19.7088 38.3822 19.3502 38.3822C18.9915 38.3822 18.6364 38.3112 18.3054 38.1733C17.9744 38.0354 17.6739 37.8333 17.4214 37.5786C17.1667 37.3261 16.9646 37.0256 16.8267 36.6946C16.6888 36.3636 16.6178 36.0085 16.6178 35.6498C16.6178 35.2912 16.6888 34.9361 16.8267 34.6051C16.9646 34.2741 17.1667 33.9736 17.4214 33.7211L23.6696 27.5L17.4214 21.2789C17.1667 21.0264 16.9646 20.7259 16.8267 20.3949C16.6888 20.0638 16.6178 19.7088 16.6178 19.3501C16.6178 18.9915 16.6888 18.6364 16.8267 18.3054C16.9646 17.9744 17.1667 17.6739 17.4214 17.4213ZM8.29352 8.29351C10.7995 5.69887 13.7972 3.62929 17.1115 2.20553C20.4259 0.781783 23.9907 0.0323705 27.5978 0.00102571C31.2049 -0.0303191 34.7821 0.657031 38.1207 2.02297C41.4594 3.38891 44.4925 5.40608 47.0432 7.95679C49.5939 10.5075 51.6111 13.5406 52.977 16.8793C54.343 20.2179 55.0303 23.7951 54.999 27.4022C54.9676 31.0093 54.2182 34.5741 52.7945 37.8885C51.3707 41.2028 49.3011 44.2005 46.7065 46.7065C44.2005 49.3011 41.2029 51.3707 37.8885 52.7945C34.5741 54.2182 31.0093 54.9676 27.4022 54.999C23.7951 55.0303 20.2179 54.343 16.8793 52.977C13.5407 51.6111 10.5075 49.5939 7.95679 47.0432C5.40609 44.4925 3.38891 41.4593 2.02297 38.1207C0.657032 34.7821 -0.0303154 31.2049 0.00102615 27.5978C0.0323715 23.9907 0.781788 20.4259 2.20554 17.1115C3.62929 13.7971 5.69887 10.7995 8.29352 8.29351ZM12.124 42.876C15.6772 46.4332 20.3538 48.6484 25.3572 49.1441C30.3605 49.6399 35.3809 48.3855 39.5631 45.5948C43.7453 42.804 46.8305 38.6496 48.2931 33.8392C49.7557 29.0288 49.5051 23.8601 47.5842 19.2137C45.6632 14.5673 42.1907 10.7307 37.7582 8.35752C33.3258 5.98432 28.2076 5.22137 23.2756 6.19866C18.3437 7.17594 13.9032 9.833 10.7107 13.7171C7.5181 17.6013 5.77102 22.4722 5.76706 27.5C5.75737 30.3559 6.31422 33.1855 7.40538 35.8248C8.49654 38.4641 10.1003 40.8607 12.124 42.876Z" fill="currentColor"/>
</svg>
