<svg width="24" height="19" viewBox="0 0 24 19" fill="none" xmlns="http://www.w3.org/2000/svg">
<path d="M22 5.21429L18.0436 7.33381C15.8378 8.51546 14.7349 9.10636 13.5669 9.338C12.5331 9.54296 11.4669 9.54296 10.4331 9.338C9.26516 9.10636 8.16226 8.51546 5.95644 7.33381L2 5.21429M5.55556 17H18.4444C19.689 17 20.3113 17 20.7867 16.7664C21.2048 16.561 21.5448 16.2332 21.7578 15.83C22 15.3716 22 14.7715 22 13.5714V5.42857C22 4.22846 22 3.6284 21.7578 3.17002C21.5448 2.76681 21.2048 2.439 20.7867 2.23356C20.3113 2 19.689 2 18.4444 2H5.55556C4.311 2 3.68871 2 3.21336 2.23356C2.79521 2.439 2.45526 2.76681 2.24221 3.17002C2 3.6284 2 4.22845 2 5.42857V13.5714C2 14.7715 2 15.3716 2.24221 15.83C2.45526 16.2332 2.79521 16.561 3.21336 16.7664C3.68871 17 4.31099 17 5.55556 17Z" stroke="currentColor" stroke-width="2.5" stroke-linecap="round" stroke-linejoin="round"/>
</svg>
