<svg xmlns="http://www.w3.org/2000/svg" width="79" height="92" viewBox="0 0 79 92" fill="none">
  <path fill-rule="evenodd" clip-rule="evenodd" d="M0 16.361V42.6702C0 69.966 14.4701 78.1877 34.202 89.3691L37.8195 91.3423C38.4772 92 38.8061 92 39.4638 92C40.1215 92 40.4504 92 41.1081 91.6711L44.7257 89.6979L45.1936 89.425C64.6859 78.0562 78.9276 69.7498 78.9276 42.6702V16.361C78.9276 15.0456 77.941 13.7301 76.6255 13.4012L40.4504 0.246649C39.7927 -0.0822163 38.8061 -0.0822163 38.1483 0.246649L1.97319 13.4012C0.986595 13.7301 0 15.0456 0 16.361ZM19.7319 45.9589C19.7319 41.6836 22.3628 38.0661 26.3092 36.7507V29.5156C26.3092 22.2806 32.2288 16.361 39.4638 16.361C46.6988 16.361 52.6184 22.2806 52.6184 29.5156V36.7507C56.5648 38.0661 59.1957 41.6836 59.1957 45.9589V55.8248C59.1957 66.6774 50.3164 75.5567 39.4638 75.5567C28.6113 75.5567 19.7319 66.6774 19.7319 55.8248V45.9589ZM46.0412 29.5156C46.0412 25.898 43.0814 22.9383 39.4639 22.9383C35.8464 22.9383 32.8866 25.898 32.8866 29.5156V36.0929H46.0412V29.5156ZM36.1753 49.2475C36.1753 47.2743 37.4907 45.9589 39.4639 45.9589C41.4371 45.9589 42.7526 47.2743 42.7526 49.2475V55.8248C42.7526 57.798 41.4371 59.1135 39.4639 59.1135C37.4907 59.1135 36.1753 57.798 36.1753 55.8248V49.2475Z" fill="currentColor"/>
</svg>