<svg width="22" height="22" viewBox="0 0 22 22" fill="none" xmlns="http://www.w3.org/2000/svg">
<path d="M2 9.98186C2 6.21917 2 4.33784 3.16891 3.16891C4.33784 2 6.21917 2 9.98186 2H11.9773C15.74 2 17.6214 2 18.7902 3.16891C19.9592 4.33784 19.9592 6.21917 19.9592 9.98186V11.9773C19.9592 15.74 19.9592 17.6214 18.7902 18.7902C17.6214 19.9592 15.74 19.9592 11.9773 19.9592H9.98186C6.21917 19.9592 4.33784 19.9592 3.16891 18.7902C2 17.6214 2 15.74 2 11.9773V9.98186Z" stroke="currentColor" stroke-width="2.5"/>
<path d="M15.3652 6.53256L15.3646 6.53078L15.3652 6.52899C15.3655 6.52817 15.3658 6.52783 15.3658 6.52782C15.3658 6.52781 15.3656 6.52802 15.3653 6.52837C15.3649 6.52874 15.3647 6.52888 15.3647 6.52885C15.3648 6.52882 15.3651 6.52859 15.3659 6.52826L15.3677 6.5277L15.3695 6.52826C15.3697 6.52834 15.3698 6.52842 15.37 6.52849C15.3701 6.52863 15.3701 6.5288 15.3702 6.52899L15.3708 6.53078L15.3702 6.53256C15.3701 6.53276 15.3701 6.53293 15.37 6.53307C15.3698 6.53314 15.3697 6.53321 15.3695 6.5333L15.3677 6.53385L15.3659 6.5333C15.3657 6.53321 15.3655 6.53314 15.3654 6.53307C15.3653 6.53293 15.3653 6.53276 15.3652 6.53256Z" fill="currentColor" stroke="currentColor" stroke-width="3"/>
<path d="M10.8775 14.0137C12.5306 14.0137 13.8707 12.6736 13.8707 11.0205C13.8707 9.36744 12.5306 8.02734 10.8775 8.02734C9.22438 8.02734 7.88428 9.36744 7.88428 11.0205C7.88428 12.6736 9.22438 14.0137 10.8775 14.0137Z" stroke="currentColor" stroke-width="2"/>
</svg>
