<svg xmlns="http://www.w3.org/2000/svg" width="67" height="67" viewBox="0 0 67 67" fill="none">
  <path fill-rule="evenodd" clip-rule="evenodd" d="M15.5555 15.7085C18.1841 15.7085 20.6567 16.7326 22.515 18.5906L32.6011 28.6779C33.3275 29.4044 34.5137 29.4076 35.2418 28.6771L45.291 18.6271C47.1502 16.7691 49.6223 15.7454 52.2509 15.7454H53.4615L40.6973 2.98125C36.7224 -0.99375 30.2777 -0.99375 26.3027 2.98125L13.5755 15.7085H15.5555ZM52.2513 51.2543C49.6227 51.2543 47.1502 50.2307 45.2918 48.3727L35.2423 38.3235C34.5369 37.616 33.3073 37.6185 32.6019 38.3235L22.5158 48.4096C20.6567 50.2671 18.1845 51.2908 15.5559 51.2908H13.5755L26.3031 64.0185C30.2781 67.9935 36.7228 67.9935 40.6978 64.0185L53.4619 51.2543H52.2513ZM56.3051 18.5891L64.0187 26.3027C67.9937 30.2773 67.9937 36.7221 64.0187 40.6975L56.3055 48.4103C56.1356 48.3422 55.952 48.3 55.7578 48.3H52.2507C50.4377 48.3 48.6629 47.565 47.3818 46.2827L37.3322 36.2344C35.5112 34.4108 32.3336 34.412 30.5105 36.2335L20.4245 46.3196C19.143 47.6015 17.3686 48.3365 15.5552 48.3365H11.2433C11.0593 48.3365 10.887 48.3803 10.7248 48.4411L2.98123 40.6975C-0.993744 36.7221 -0.993744 30.2773 2.98123 26.3027L10.7252 18.5587C10.8874 18.6199 11.0593 18.6633 11.2433 18.6633H15.5552C17.3686 18.6633 19.143 19.3987 20.4245 20.6806L30.5113 30.7675C31.4519 31.7068 32.6863 32.1779 33.922 32.1779C35.1568 32.1779 36.3925 31.7068 37.3322 30.7666L47.3818 20.717C48.6629 19.4352 50.4377 18.6998 52.2507 18.6998H55.7578C55.9516 18.6998 56.1356 18.6572 56.3051 18.5891Z" fill="currentColor"/>
</svg>