<?xml version="1.0" encoding="iso-8859-1"?>
<svg fill="currentcolor" xmlns="http://www.w3.org/2000/svg" viewBox="0 0 230.565 230.565">
	<path
		d="M228.336,122.532L121.728,15.921c-1.02-1.02-2.308-1.73-3.718-2.044L58.156,0.471c-2.544-0.571-5.202,0.2-7.043,2.044 L2.228,51.402c-1.864,1.864-2.63,4.56-2.024,7.127l13.982,59.276c0.325,1.375,1.025,2.633,2.026,3.634L122.828,228.05 c1.428,1.428,3.36,2.229,5.379,2.229c2.019,0,3.954-0.801,5.379-2.229l94.749-94.754 C231.308,130.321,231.308,125.502,228.336,122.532z M128.205,211.91l-99.707-99.705L15.987,59.163l42.925-42.927l53.615,12.009 l99.669,99.669L128.205,211.91z" />
	<path
		d="M86.399,45.544c-5.42-5.42-12.623-8.402-20.284-8.402c-7.661,0-14.865,2.984-20.285,8.402 c-11.182,11.187-11.182,29.384,0,40.569c5.42,5.417,12.623,8.4,20.284,8.4s14.865-2.983,20.284-8.402 C97.581,74.928,97.581,56.731,86.399,45.544z M75.64,75.349c-2.544,2.544-5.927,3.944-9.523,3.944s-6.98-1.4-9.523-3.944 c-5.25-5.25-5.25-13.797,0-19.049c2.544-2.544,5.927-3.946,9.523-3.946s6.98,1.403,9.523,3.944 C80.887,61.555,80.887,70.102,75.64,75.349z" />
	<rect x="71.248" y="142.44" transform="matrix(-0.7071 -0.7071 0.7071 -0.7071 77.5857 332.2308)"
		width="72.703" height="15.214" />
	<rect x="92.613" y="121.073" transform="matrix(-0.7071 -0.7071 0.7071 -0.7071 129.1637 310.8621)"
		width="72.701" height="15.214" />
	<rect x="113.972" y="99.701" transform="matrix(0.7071 0.7071 -0.7071 0.7071 119.9078 -74.8648)"
		width="72.703" height="15.217" />
</svg>