<svg width="24" height="24" viewBox="0 0 24 24" fill="none" xmlns="http://www.w3.org/2000/svg">
<path d="M18 19.32C18.5304 19.32 19.0391 19.5138 19.4142 19.8589C19.7893 20.204 20 20.672 20 21.16C20 21.648 19.7893 22.116 19.4142 22.4611C19.0391 22.8061 18.5304 23 18 23C16.89 23 16 22.172 16 21.16C16 20.1388 16.89 19.32 18 19.32ZM2 4.59998H5.27L6.21 6.43998H14H21C21.2652 6.43998 21.5196 6.5369 21.7071 6.70944C21.8946 6.88197 22 7.11598 22 7.35998C22 7.51638 21.95 7.67278 21.88 7.81998L18.3 13.7724C17.96 14.3336 17.3 14.72 16.55 14.72H9.1L8.2 16.2196L8.17 16.33C8.17 16.391 8.19634 16.4495 8.24322 16.4926C8.29011 16.5357 8.3537 16.56 8.42 16.56H20V18.4H8C6.89 18.4 6 17.572 6 16.56C6 16.238 6.09 15.9344 6.24 15.6768L7.6 13.4228L4 6.43998H2V4.59998ZM8 19.32C8.53043 19.32 9.03914 19.5138 9.41421 19.8589C9.78929 20.204 10 20.672 10 21.16C10 21.648 9.78929 22.116 9.41421 22.4611C9.03914 22.8061 8.53043 23 8 23C6.89 23 6 22.172 6 21.16C6 20.1388 6.89 19.32 8 19.32ZM17 12.88L19.78 8.27998H7.14L9.5 12.88H17Z" fill="currentcolor"/>
<path d="M13.7273 0C14.5953 0 15.4277 0.339249 16.0414 0.943116C16.6552 1.54698 17 2.366 17 3.22C17 4.074 16.6552 4.89302 16.0414 5.49688C15.4277 6.10075 14.5953 6.44 13.7273 6.44C12.8593 6.44 12.0269 6.10075 11.4131 5.49688C10.7993 4.89302 10.4545 4.074 10.4545 3.22C10.4545 2.366 10.7993 1.54698 11.4131 0.943116C12.0269 0.339249 12.8593 0 13.7273 0ZM13.7273 0.805C13.0763 0.805 12.452 1.05944 11.9916 1.51234C11.5313 1.96524 11.2727 2.5795 11.2727 3.22C11.2727 3.8605 11.5313 4.47476 11.9916 4.92766C12.452 5.38056 13.0763 5.635 13.7273 5.635C14.3783 5.635 15.0026 5.38056 15.4629 4.92766C15.9232 4.47476 16.1818 3.8605 16.1818 3.22C16.1818 2.5795 15.9232 1.96524 15.4629 1.51234C15.0026 1.05944 14.3783 0.805 13.7273 0.805ZM13.3182 1.61H13.9318V3.13145L14.885 4.06927L14.4514 4.49592L13.3182 3.381V1.61ZM8.40909 5.635C8.30059 5.635 8.19654 5.59259 8.11982 5.51711C8.0431 5.44163 8 5.33925 8 5.2325C8 5.12575 8.0431 5.02337 8.11982 4.94789C8.19654 4.87241 8.30059 4.83 8.40909 4.83H9.97591C10.1027 5.11578 10.2664 5.38545 10.4545 5.635H8.40909ZM8.81818 3.6225C8.70968 3.6225 8.60563 3.58009 8.52891 3.50461C8.45219 3.42913 8.40909 3.32675 8.40909 3.22C8.40909 3.11325 8.45219 3.01087 8.52891 2.93539C8.60563 2.85991 8.70968 2.8175 8.81818 2.8175H9.65682L9.63636 3.22L9.65682 3.6225H8.81818ZM9.22727 1.61C9.11878 1.61 9.01472 1.56759 8.938 1.49211C8.86128 1.41663 8.81818 1.31425 8.81818 1.2075C8.81818 1.10075 8.86128 0.998373 8.938 0.92289C9.01472 0.847406 9.11878 0.805 9.22727 0.805H10.4545C10.2664 1.05455 10.1027 1.32423 9.97591 1.61H9.22727Z" fill="currentcolor"/>
</svg>
