<svg width="52" height="51" viewBox="0 0 52 51" fill="none" xmlns="http://www.w3.org/2000/svg">
<path d="M22.3711 25.879C22.3714 26.9308 22.7893 27.9394 23.533 28.6831C24.2767 29.4268 25.2853 29.8448 26.3371 29.845C27.8751 29.845 29.1931 28.961 29.8511 27.682L29.8621 27.692L37.1021 14.63L24.3921 22.424L24.4041 22.436C23.1971 23.117 22.3711 24.395 22.3711 25.879ZM42.3151 6.98102C38.2511 3.42902 33.0001 1.16102 27.0001 0.822021V6.84902C32.0001 7.16702 34.9461 8.75502 37.9041 11.233L42.3151 6.98102ZM45.1461 24H51.1661C50.7621 18 48.4151 13.07 44.7711 9.03002L40.5121 13.263C43.0781 16.203 44.7661 20 45.1461 24Z" fill="currentcolor"/>
<path d="M45.1739 27C44.5369 37 36.2519 44.931 26.1319 44.931C15.5969 44.931 6.71094 36.387 6.71094 25.853C6.71094 15.825 14.9999 7.62 23.9999 6.85V0.822998C10.9999 1.602 0.710938 12.54 0.710938 25.879C0.710938 39.722 12.1309 50.931 25.9739 50.931C39.4059 50.931 50.5639 40 51.2049 27H45.1739Z" fill="currentcolor"/>
</svg>
