<svg width="33" height="27" viewBox="0 0 33 27" fill="none" xmlns="http://www.w3.org/2000/svg">
<path d="M7.25 7.3335H13.4167" stroke="currentcolor" stroke-width="2"/>
<path d="M30.118 8.875H26.1058C23.355 8.875 21.125 10.9456 21.125 13.5C21.125 16.0544 23.355 18.125 26.1058 18.125H30.118C30.2466 18.125 30.3107 18.125 30.365 18.1218C31.1964 18.071 31.8585 17.4562 31.9131 16.6842C31.9167 16.6337 31.9167 16.5741 31.9167 16.4549V10.5451C31.9167 10.4259 31.9167 10.3662 31.9131 10.3158C31.8585 9.54384 31.1964 8.9289 30.365 8.8783C30.3107 8.875 30.2466 8.875 30.118 8.875Z" stroke="currentcolor" stroke-width="2"/>
<path d="M30.3212 8.87484C30.2014 5.98837 29.8149 4.21862 28.5689 2.97267C26.7629 1.1665 23.8558 1.1665 18.0418 1.1665H13.4168C7.60283 1.1665 4.69585 1.1665 2.88967 2.97267C1.0835 4.77886 1.0835 7.68584 1.0835 13.4998C1.0835 19.3138 1.0835 22.2209 2.88967 24.027C4.69585 25.8332 7.60283 25.8332 13.4168 25.8332H18.0418C23.8558 25.8332 26.7629 25.8332 28.5689 24.027C29.8149 22.7811 30.2014 21.0113 30.3212 18.1248" stroke="currentcolor" stroke-width="2"/>
<path d="M25.7363 13.5H25.7506" stroke="currentcolor" stroke-width="2"/>
</svg>
